<?xml version="1.0" encoding="UTF-8"?>
<svg width="180px" height="56px" viewBox="0 0 180 56" version="1.1" xmlns="http://www.w3.org/2000/svg" xmlns:xlink="http://www.w3.org/1999/xlink">
    <!-- Generator: Sketch 53.1 (72631) - https://sketchapp.com -->
    <title>btn_apple</title>
    <desc>Created with Sketch.</desc>
    <g id="Page-1" stroke="none" stroke-width="1" fill="none" fill-rule="evenodd">
        <g id="Home_page" transform="translate(-970.000000, -6250.000000)" fill-rule="nonzero">
            <g id="footer" transform="translate(0.000000, 6145.000000)">
                <g id="Group-9" transform="translate(96.000000, 56.000000)">
                    <g id="btn_apple" transform="translate(874.000000, 49.000000)">
                        <path d="M9,-1.27897692e-13 L171,-1.27897692e-13 C175.970563,-1.2881077e-13 180,4.02943725 180,9 L180,47 C180,51.9705627 175.970563,56 171,56 L9,56 C4.02943725,56 6.08718376e-16,51.9705627 0,47 L0,9 C-6.08718376e-16,4.02943725 4.02943725,-1.26984615e-13 9,-1.27897692e-13 Z" id="Rectangle-1" fill="#222222"></path>
                        <g id="Group-2" transform="translate(21.375000, 11.200000)" fill="#FFFFFF">
                            <path d="M18.3827416,6.75249821 C21.7527209,6.75249821 23.9076833,10.1429238 23.9076833,10.1429238 C23.9076833,10.1429238 20.620368,11.997809 20.620368,16.0261778 C20.620368,20.8073942 24.75,22.198185 24.75,22.198185 C24.75,22.198185 21.4904768,30.24 17.8304613,30.24 C15.7724151,30.24 15.6348795,29.0088815 12.8998445,29.0088815 C10.5246826,29.0088815 9.72369785,30.24 7.91435605,30.24 C4.46100026,30.24 0,22.401133 0,16.0261778 C0,9.40425276 4.51658461,6.75249821 7.34782327,6.75249821 C9.83415393,6.75249821 10.8695906,8.27386217 12.8720523,8.27386217 C14.5573983,8.27386217 15.8835838,6.75249821 18.3827416,6.75249821 L18.3827416,6.75249821 Z M17.8033817,1.8e-15 C18.3000777,3.24567594 15.4688391,7.25986824 12.08532,7.12929507 C11.5879114,2.99945224 15.2343871,0.217870661 17.8033817,1.8e-15 L17.8033817,1.8e-15 Z" id="Imported-Layers"></path>
                            <g id="App-Store" transform="translate(40.500000, 8.960000)">
                                <path d="M13.5687618,16.493957 L10.832906,16.493957 L9.33426903,11.729642 L4.12518037,11.729642 L2.69762023,16.493957 L0.0340459808,16.493957 L5.19615165,0.274078854 L8.38376696,0.274078854 L13.5687618,16.493957 L13.5687618,16.493957 Z M8.8825095,9.73079923 L7.52723088,5.49666512 C7.38387252,5.06276997 7.11402148,4.04384765 6.71888247,2.43989817 L6.67069479,2.43989817 C6.51167543,3.12974271 6.2574854,4.14866502 5.90932938,5.49666512 L4.57693991,9.73079923 L8.8825095,9.73079923 L8.8825095,9.73079923 Z" id="Fill-4"></path>
                                <path d="M26.8179656,10.5023038 C26.8179656,12.4913962 26.284287,14.0636567 25.2157251,15.2178665 C24.2591995,16.2453205 23.0701684,16.7584381 21.6522458,16.7584381 C20.1210821,16.7584381 19.0199936,16.2063187 18.3513894,15.0984235 L18.3513894,21.2351147 L15.7829859,21.2351147 L15.7829859,8.64240494 C15.7829859,7.39312818 15.7504592,6.11216245 15.6878152,4.79828894 L17.9466129,4.79828894 L18.0899713,6.65331258 L18.1381589,6.65331258 C18.994695,5.25534141 20.2945578,4.55696523 22.038952,4.55696523 C23.4026634,4.55696523 24.5410975,5.10177178 25.4518447,6.19260368 C26.3613873,7.2858732 26.8179656,8.72162737 26.8179656,10.5023038 L26.8179656,10.5023038 Z M24.2013743,10.5973707 C24.2013743,9.45900536 23.948389,8.52052428 23.4400089,7.78192748 C22.8846458,7.01286052 22.1389414,6.62649883 21.2041003,6.62649883 C20.5704323,6.62649883 19.9945895,6.84100879 19.4801859,7.26515349 C18.9645777,7.69051699 18.6272639,8.2475116 18.4694493,8.93857494 C18.3899396,9.25912108 18.3501848,9.5211645 18.3501848,9.72836162 L18.3501848,11.6808898 C18.3501848,12.5291792 18.6079889,13.2470563 19.1235971,13.834521 C19.6392053,14.4195482 20.3090141,14.7132806 21.1330235,14.7132806 C22.1003913,14.7132806 22.8533238,14.3342317 23.3918212,13.5822281 C23.9315233,12.8277868 24.2013743,11.8332406 24.2013743,10.5973707 L24.2013743,10.5973707 Z" id="Fill-5"></path>
                                <path d="M40.1141523,10.5023038 C40.1141523,12.4913962 39.5804737,14.0636567 38.5119118,15.2178665 C37.5541816,16.2453205 36.3663552,16.7584381 34.9472279,16.7584381 C33.4172689,16.7584381 32.3161803,16.2063187 31.6463715,15.0984235 L31.6463715,21.2351147 L29.077968,21.2351147 L29.077968,8.64240494 C29.077968,7.39312818 29.0454413,6.11216245 28.9827973,4.79828894 L31.241595,4.79828894 L31.3849533,6.65331258 L31.433141,6.65331258 C32.2884724,5.25534141 33.5883352,4.55696523 35.3339341,4.55696523 C36.6964408,4.55696523 37.8360796,5.10177178 38.7480315,6.19260368 C39.6563693,7.2858732 40.1141523,8.72162737 40.1141523,10.5023038 L40.1141523,10.5023038 Z M37.4963564,10.5973707 C37.4963564,9.45900536 37.2421663,8.52052428 36.7337863,7.78192748 C36.1796279,7.01286052 35.4351282,6.62649883 34.5002871,6.62649883 C33.8666191,6.62649883 33.2907762,6.84100879 32.7739633,7.26515349 C32.2595598,7.69051699 31.922246,8.2475116 31.7644313,8.93857494 C31.6861264,9.25912108 31.6439621,9.5211645 31.6439621,9.72836162 L31.6439621,11.6808898 C31.6439621,12.5291792 31.9029709,13.2470563 32.4161698,13.834521 C32.931778,14.4183294 33.6015868,14.7132806 34.4280056,14.7132806 C35.396578,14.7132806 36.1495106,14.3342317 36.6868033,13.5822281 C37.2265054,12.8277868 37.4963564,11.8332406 37.4963564,10.5973707 L37.4963564,10.5973707 Z" id="Fill-6"></path>
                                <path d="M54.9800529,11.9453708 C54.9800529,13.3250599 54.5041995,14.4475808 53.5549021,15.3141522 C52.5116388,16.2599462 51.055166,16.7340619 49.1878933,16.7340619 C47.4627742,16.7340619 46.0797876,16.3976713 45.0365243,15.7236713 L45.6304375,13.5578519 C46.7568246,14.231852 47.9940434,14.5694614 49.3408892,14.5694614 C50.3094616,14.5694614 51.0623942,14.3476386 51.5996869,13.9076494 C52.1393889,13.4652226 52.4104446,12.8765391 52.4104446,12.1403799 C52.4104446,11.4810055 52.1863719,10.9276673 51.7430452,10.4779277 C51.2985138,10.0306257 50.5636517,9.61135618 49.5324352,9.22865091 C46.7255026,8.16950798 45.3208316,6.61918599 45.3208316,4.58256017 C45.3208316,3.25162337 45.8171648,2.16201027 46.806217,1.31006446 C47.7964739,0.459337457 49.1095883,0.0339739546 50.7431508,0.0339739546 C52.2020329,0.0339739546 53.4175672,0.291142146 54.3825256,0.804259723 L53.7380153,2.92254559 C52.8296775,2.4252725 51.8044845,2.17663595 50.6576176,2.17663595 C49.7516892,2.17663595 49.0397161,2.40211517 48.5325408,2.850636 C48.1048751,3.25162337 47.8868258,3.74036481 47.8868258,4.32051675 C47.8868258,4.96039021 48.1337877,5.49178989 48.6265067,5.90740294 C49.0529678,6.29254582 49.8311989,6.71059649 50.9563813,7.15911731 C52.3369584,7.72220596 53.3501045,8.37792391 54.0006382,9.13114639 C54.654786,9.88436886 54.9800529,10.8240687 54.9800529,11.9453708" id="Fill-7"></path>
                                <path d="M63.493612,6.74837949 L60.6625856,6.74837949 L60.6625856,12.4267994 C60.6625856,13.8710852 61.1613281,14.5913999 62.1612225,14.5913999 C62.6202102,14.5913999 63.0008929,14.5523981 63.302066,14.4707381 L63.3731428,16.443986 C62.8671721,16.6353386 62.2009774,16.7316243 61.376968,16.7316243 C60.3614125,16.7316243 59.5699298,16.4171722 58.9964964,15.7919244 C58.4254723,15.1654578 58.1399603,14.1160654 58.1399603,12.6388718 L58.1399603,6.74350426 L56.454596,6.74350426 L56.454596,4.79341371 L58.1399603,4.79341371 L58.1399603,2.65197052 L60.6625856,1.88168475 L60.6625856,4.79341371 L63.493612,4.79341371 L63.493612,6.74837949" id="Fill-8"></path>
                                <path d="M76.2416639,10.5498373 C76.2416639,12.347577 75.7344885,13.8235518 74.7189331,14.9777616 C73.6575993,16.1648792 72.2457002,16.7584381 70.485645,16.7584381 C68.7870291,16.7584381 67.4365693,16.1892554 66.4294467,15.05089 C65.4223241,13.9125247 64.9187628,12.4767705 64.9187628,10.7448463 C64.9187628,8.93248091 65.4403945,7.44797448 66.4764297,6.29376463 C67.5148743,5.13955478 68.9147265,4.56062165 70.6747817,4.56062165 C72.3721928,4.56062165 73.7334949,5.13224194 74.765916,6.2693885 C75.7513542,7.37484608 76.2416639,8.79963099 76.2416639,10.5498373 L76.2416639,10.5498373 Z M73.5792943,10.6095588 C73.5792943,9.53822779 73.3504028,8.61924762 72.8914151,7.85018065 C72.3529178,6.92145003 71.5807101,6.45830352 70.5832251,6.45830352 C69.5556227,6.45830352 68.76414,6.92145003 68.228052,7.85018065 C67.7666549,8.61924762 67.5389681,9.55407227 67.5389681,10.658311 C67.5389681,11.7308609 67.7666549,12.6522786 68.228052,13.4176892 C68.7834151,14.3476386 69.5580321,14.8120039 70.5627453,14.8120039 C71.5433647,14.8120039 72.3131629,14.3366694 72.8709354,13.3957507 C73.34197,12.6084016 73.5792943,11.6833274 73.5792943,10.6095588 L73.5792943,10.6095588 Z" id="Fill-9"></path>
                                <path d="M84.5937942,7.0835513 C84.3396042,7.03601785 84.0673438,7.01286052 83.7842411,7.01286052 C82.8807221,7.01286052 82.1820006,7.35534518 81.6904863,8.04762732 C81.2628206,8.65703062 81.0495901,9.42731639 81.0495901,10.3572658 L81.0495901,16.493957 L78.4811865,16.493957 L78.4811865,8.48152247 C78.4811865,7.13474118 78.455888,5.90496533 78.4064956,4.79950774 L80.6436088,4.79950774 L80.7375748,7.03723665 L80.8086516,7.03723665 C81.0809121,6.26816969 81.5073731,5.64779713 82.0928534,5.18465063 C82.6662869,4.76538116 83.2830892,4.55696523 83.949284,4.55696523 C84.1866083,4.55696523 84.4010435,4.57524733 84.5913849,4.60449869 L84.5937942,7.0835513" id="Fill-10"></path>
                                <path d="M96.0805335,10.0927848 C96.0805335,10.5583689 96.0504162,10.9508246 95.9865675,11.2713708 L88.2825615,11.2713708 C88.3102694,12.4267994 88.6849286,13.311653 89.3993111,13.9210563 C90.0486401,14.464644 90.8895152,14.7376567 91.9195269,14.7376567 C93.0603704,14.7376567 94.1012243,14.5548357 95.0372701,14.1843185 L95.4396373,15.9881523 C94.3457768,16.4695809 93.0531422,16.7109046 91.5641428,16.7109046 C89.7715609,16.7109046 88.3644805,16.1770673 87.3404922,15.1118304 C86.320118,14.0453746 85.8069192,12.6108392 85.8069192,10.8167559 C85.8069192,9.05436157 86.2815679,7.58569962 87.235684,6.41442648 C88.2331691,5.16393092 89.5812196,4.53868313 91.277426,4.53868313 C92.9435152,4.53868313 94.2048279,5.16393092 95.0601593,6.41442648 C95.7396056,7.40531625 96.0805335,8.63387329 96.0805335,10.0927848 L96.0805335,10.0927848 Z M93.6313944,9.41878474 C93.6494648,8.64728017 93.4808079,7.98424938 93.1326519,7.42116073 C92.6881205,6.69718961 92.0038554,6.33642286 91.0870847,6.33642286 C90.2462096,6.33642286 89.5631492,6.68865797 89.0427222,7.39556579 C88.6150565,7.95743563 88.3608665,8.63387329 88.2825615,9.41634713 L93.6313944,9.41878474 L93.6313944,9.41878474 Z" id="Fill-11"></path>
                            </g>
                        </g>
                    </g>
                </g>
            </g>
        </g>
    </g>
</svg>