<?xml version="1.0" encoding="UTF-8"?>
<svg width="180px" height="56px" viewBox="0 0 180 56" version="1.1" xmlns="http://www.w3.org/2000/svg" xmlns:xlink="http://www.w3.org/1999/xlink">
    <!-- Generator: Sketch 53.1 (72631) - https://sketchapp.com -->
    <title>btn_google</title>
    <desc>Created with Sketch.</desc>
    <g id="Page-1" stroke="none" stroke-width="1" fill="none" fill-rule="evenodd">
        <g id="Home_page" transform="translate(-970.000000, -6335.000000)" fill-rule="nonzero">
            <g id="footer" transform="translate(0.000000, 6145.000000)">
                <g id="Group-9" transform="translate(96.000000, 56.000000)">
                    <g id="btn_google" transform="translate(874.000000, 134.000000)">
                        <rect id="Rectangle-1" fill="#222222" x="0" y="0" width="180" height="56" rx="9"></rect>
                        <g id="Group-2" transform="translate(15.750000, 15.680000)" fill="#FFFFFF">
                            <path d="M119.005964,10.3208076 L119.005964,10.3208076 C119.005964,8.93117882 117.907561,7.80334498 116.274764,7.80334498 L113.338259,7.80334498 L113.338259,12.8382703 L116.412189,12.8382703 C117.85665,12.8382703 119.005964,11.7104364 119.005964,10.3208076 L119.005964,10.3208076 Z M96.797997,15.1990526 L96.797997,15.1990526 L102.159906,12.94041 C101.603551,11.9880978 100.706793,11.6929173 99.9391427,11.6929173 C97.8993945,11.6929173 96.5008526,13.9981674 96.797997,15.1990526 L96.797997,15.1990526 Z M86.2006232,16.5113329 L86.2006232,16.5113329 C86.2265776,16.4326622 86.2678384,16.25681 86.2961221,16.0802968 C86.302777,16.0522001 86.3071028,16.0254256 86.3037753,16.0231118 C86.3383811,15.8151963 86.3546858,15.6019921 86.3536875,15.3834991 C86.3513583,15.1775669 86.3350536,14.9762625 86.301446,14.7812384 C86.2984513,14.7435558 86.2927946,14.7068649 86.2894671,14.7048816 C86.259187,14.5194435 86.2136004,14.3386331 86.1540385,14.1684002 C85.6985058,12.7615829 84.4843066,11.7610105 83.0657998,11.7729102 C81.263634,11.7867933 79.8118523,13.4283006 79.8248295,15.4360564 C79.8388049,17.4428205 81.3115497,19.0608588 83.1123845,19.0469758 C84.5318896,19.035076 85.7334444,18.0150012 86.2006232,16.5113329 L86.2006232,16.5113329 Z M73.4184229,15.4125874 L73.4184229,15.4125874 C73.4184229,13.6781958 72.1899155,11.7672909 70.0559994,11.7672909 C67.9220834,11.7672909 66.693576,13.6791874 66.693576,15.413579 C66.693576,17.1489623 67.9220834,19.0598672 70.0559994,19.0598672 C72.1899155,19.0598672 73.4184229,17.1466485 73.4184229,15.4125874 L73.4184229,15.4125874 Z M60.3404092,15.4125874 L60.3404092,15.4125874 C60.3404092,13.6781958 59.1119017,11.7672909 56.9779857,11.7672909 C54.8440697,11.7672909 53.6155622,13.6791874 53.6155622,15.413579 C53.6155622,17.1489623 54.8440697,19.0598672 56.9779857,19.0598672 C59.1119017,19.0598672 60.3404092,17.1466485 60.3404092,15.4125874 L60.3404092,15.4125874 Z M134.576929,16.6898295 L134.576929,16.6898295 C133.978647,16.2862289 133.066584,16.1074018 132.274975,16.1074018 C130.536697,16.1074018 129.555422,16.9797211 129.555422,17.9340166 C129.555422,18.9993767 130.581285,19.5262721 131.540932,19.5262721 C132.935481,19.5262721 134.576929,18.3726554 134.576929,16.6898295 L134.576929,16.6898295 Z M90.3895939,21.097703 L93.0635608,21.097703 L93.0635608,3.29234014 L90.3895939,3.29234014 L90.3895939,21.097703 Z M123.097106,21.3561924 L125.539148,21.3561924 L125.539148,5.44454594 L123.097106,5.44454594 L123.097106,21.3561924 Z M110.895219,21.3561924 L110.895219,5.44652923 L116.049161,5.44652923 C119.154702,5.44652923 121.498915,7.60534601 121.498915,10.2646143 C121.498915,12.9242131 119.270499,15.0826993 116.524991,15.0826993 L113.338259,15.0826993 L113.338259,21.3561924 L110.895219,21.3561924 L110.895219,21.3561924 Z M95.8034118,19.6684083 L95.8034118,19.6684083 C93.6575168,17.314898 93.6575168,13.4573889 95.8034118,11.1038787 C97.9506378,8.75036841 101.61553,8.76325983 103.696539,11.0899956 C104.38067,11.8535642 104.840195,12.8412452 105.244817,13.8669394 L97.2109379,17.227633 C97.680446,18.1680455 98.6044886,19.0684615 100.067251,19.0684615 C101.319383,19.0684615 102.170887,18.6516389 103.068642,17.3869577 L105.169949,18.7914612 L105.170947,18.7914612 C104.929372,19.1081274 104.631229,19.4228102 104.406624,19.6684083 C102.260729,22.0219185 97.9506378,22.0219185 95.8034118,19.6684083 L95.8034118,19.6684083 Z M34.6309301,18.5911484 L34.6309301,18.5911484 C30.9853377,14.9405632 31.0928155,9.07562882 34.7394061,5.42504353 C36.5818345,3.59380101 38.9769581,2.67718809 41.3930449,2.68809622 C43.6949989,2.69867379 45.9959547,3.55182126 47.7957912,5.22902786 L45.9906307,7.10125849 C43.3738966,4.57718485 39.2188663,4.61057032 36.6596976,7.22719773 C34.0715799,9.89208533 34.0120179,14.1717057 36.5981392,16.8365933 C39.2048908,19.5004893 43.5259627,19.6565085 46.1313833,16.9926125 C47.012834,16.0921965 47.3123077,14.9418853 47.4913264,13.7664524 L41.3787367,13.7664524 L41.3787367,11.1997379 L49.9656441,11.1997379 C50.0880955,11.8406728 50.1077277,12.5021018 50.1077277,13.1546059 C50.1077277,15.2671458 49.1880109,17.5052943 47.7678404,18.950786 C46.142364,20.6045236 43.8750158,21.4596543 41.4785612,21.4391603 C38.994261,21.4176746 36.5003111,20.4491655 34.6309301,18.5911484 L34.6309301,18.5911484 Z M64.0315881,15.4145707 L64.0315881,15.4145707 C64.0315881,12.5387927 66.2327193,9.36849541 70.0559994,9.36849541 C73.8792796,9.36849541 76.0817418,12.5364789 76.0817418,15.4125874 C76.0817418,18.2873737 73.8792796,21.457671 70.0559994,21.457671 C66.2327193,21.457671 64.0315881,18.2896876 64.0315881,15.4145707 L64.0315881,15.4145707 Z M50.9522434,15.4145707 L50.9522434,15.4145707 C50.9522434,12.5387927 53.1547056,9.36849541 56.9779857,9.36849541 C60.8012658,9.36849541 63.003728,12.5364789 63.003728,15.4125874 C63.003728,18.2873737 60.8012658,21.457671 56.9779857,21.457671 C53.1547056,21.457671 50.9522434,18.2896876 50.9522434,15.4145707 L50.9522434,15.4145707 Z M128.121941,20.6022097 L128.121941,20.6022097 C127.42683,19.9364837 127.047496,18.8929399 127.037847,17.9340166 C127.027864,17.0983883 127.315359,16.2452408 127.933273,15.5891007 C128.924531,14.5356404 130.416575,14.0854324 131.981158,14.0854324 C133.003694,14.0854324 133.909103,14.2890507 134.593234,14.6800904 C134.593234,12.9232214 133.210664,12.2522066 132.039722,12.2522066 C130.957624,12.2522066 130.004299,12.8197595 129.637943,13.8011601 L127.42683,12.9113217 C127.820471,11.8502587 129.058961,10.0365353 131.985484,10.0365353 C133.412309,10.0365353 134.827489,10.5373174 135.7502,11.5111153 C136.671914,12.4849132 136.980039,13.6986898 136.980039,15.3111088 L136.980039,21.3456149 L134.567279,21.3456149 L134.567279,20.2673634 C134.246177,20.661378 133.762694,21.0547316 133.245602,21.3079323 C132.626358,21.6103848 131.89664,21.7138467 131.225486,21.7138467 C130.124754,21.7138467 128.914548,21.3594979 128.121941,20.6022097 L128.121941,20.6022097 Z M139.812061,26.090318 L139.812061,26.090318 L142.254102,20.3437203 L137.931034,10.3799759 L140.392374,10.3799759 L143.47296,17.476206 L146.487328,10.3799759 L148.95,10.3799759 L142.274733,26.090318 L139.812061,26.090318 L139.812061,26.090318 Z M79.1892799,25.4883879 C78.5061473,24.8871189 77.9228392,23.9566229 77.5824375,23.3047799 L79.9170008,22.3180906 C80.0677359,22.6013712 80.2833569,23.0386878 80.6304136,23.4115473 C81.2290281,24.0557877 82.0312847,24.4983931 83.0029103,24.4983931 C83.9096499,24.4983931 84.9341825,24.0858677 85.4719041,23.3437847 C85.9533911,22.6790503 86.1410613,21.8335055 86.1410613,20.9264785 L86.1410613,20.0204431 C84.4743241,22.1501716 80.8300627,21.8526773 78.7913127,19.6498975 C76.6131411,17.2963872 76.6324405,13.4755691 78.835901,11.1220589 C81.0110779,8.98175285 84.2380727,8.71136361 86.1367355,10.7386218 C86.1377338,10.7396135 86.140063,10.7419273 86.1410613,10.7429189 L86.1410613,9.718547 L88.669617,9.718547 L88.669617,20.6398923 C88.669617,23.4191499 87.6427552,24.9895892 86.367663,25.9038882 C85.4339707,26.574242 84.1262692,26.88 82.9736284,26.88 C81.475262,26.88 80.1901873,26.3673182 79.1892799,25.4883879 L79.1892799,25.4883879 Z" id="Fill-17"></path>
                            <path d="M0.784852502,24.3246884 C0.372090554,24.2115816 0.103424782,23.7946847 0.103424782,23.1495558 L0.103424782,1.85479878 C0.103424782,1.25731109 0.330908029,0.854349171 0.691512928,0.70784 L0.691512928,0.70784 L10.9780362,12.5751055 L0.784852502,24.3246884 L0.784852502,24.3246884 Z M2.20086636,23.8726689 L14.5825941,16.7335801 L11.5668483,13.254401 L2.20086636,23.8726689 L2.20086636,23.8726689 Z M14.6678558,8.32188675 L2.45868076,1.28065259 L11.5847011,11.8758089 L14.6678558,8.32188675 L14.6678558,8.32188675 Z M15.4962384,8.79962877 L20.2791209,11.5579966 C21.1847024,12.0802605 21.192984,12.9221442 20.2791209,13.4490618 L15.3752361,16.2765565 L12.1766559,12.5630586 L15.4962384,8.79962877 L15.4962384,8.79962877 Z" id="google-play"></path>
                        </g>
                    </g>
                </g>
            </g>
        </g>
    </g>
</svg>